<?xml version="1.0" standalone="no"?>
<!DOCTYPE svg PUBLIC "-//W3C//DTD SVG 20010904//EN"
 "http://www.w3.org/TR/2001/REC-SVG-20010904/DTD/svg10.dtd">
<svg version="1.0" xmlns="http://www.w3.org/2000/svg"
 width="400.000000pt" height="400.000000pt" viewBox="0 0 400.000000 400.000000"
 preserveAspectRatio="xMidYMid meet">
<metadata>
Created by potrace 1.14, written by Peter Selinger 2001-2017
</metadata>
<g transform="translate(0.000000,400.000000) scale(0.100000,-0.100000)"
fill="#000000" stroke="none">
<path d="M37 3873 c-4 -6 -4 -18 -1 -27 4 -12 0 -16 -15 -16 -24 0 -28 -28
-10 -61 8 -15 7 -24 -3 -36 -11 -14 -10 -15 12 -8 51 16 66 23 79 39 19 23 6
64 -24 72 -14 3 -25 14 -27 27 -2 14 -6 18 -11 10z m14 -80 c15 -40 -6 -52
-25 -15 -15 29 -13 34 12 41 1 1 7 -11 13 -26z m39 2 c0 -14 -4 -25 -10 -25
-5 0 -10 4 -10 9 0 5 -3 16 -6 25 -4 11 -1 16 10 16 10 0 16 -9 16 -25z"/>
<path d="M1667 3603 c-65 -13 -130 -29 -145 -37 -15 -7 -43 -17 -62 -21 -57
-12 -216 -91 -288 -142 -113 -81 -227 -198 -325 -335 -21 -30 -87 -52 -128
-43 -50 11 -31 -32 29 -64 19 -10 18 -13 -18 -83 -84 -163 -131 -349 -131
-519 1 -132 21 -212 75 -297 35 -56 107 -102 159 -102 44 0 43 -5 16 88 -6 23
-9 45 -6 49 4 3 28 -14 56 -39 27 -24 67 -50 89 -56 27 -8 43 -20 48 -35 5
-12 8 -92 9 -177 1 -145 3 -159 28 -219 20 -47 27 -82 27 -130 1 -77 8 -92 76
-163 101 -107 321 -231 519 -294 80 -25 105 -28 226 -28 105 -1 140 3 154 14
16 13 17 12 14 -5 -4 -18 -13 -20 -79 -22 -41 -1 -132 -7 -202 -14 l-127 -11
-35 -74 c-41 -86 -55 -95 -181 -118 -187 -34 -204 -39 -256 -88 -19 -18 -51
-45 -70 -60 -18 -15 -47 -39 -64 -53 -16 -15 -43 -34 -58 -43 -54 -32 -31 -42
113 -47 185 -6 814 -23 1105 -30 132 -3 299 -7 370 -10 72 -3 213 -7 315 -11
102 -3 208 -7 235 -9 92 -6 386 -8 391 -2 7 6 -54 113 -98 172 -16 22 -58 79
-94 128 l-65 87 -52 0 c-29 0 -74 3 -102 6 l-50 6 -42 87 c-24 47 -60 109 -81
136 -38 49 -39 50 -88 47 -27 -1 -82 -9 -122 -18 -41 -9 -76 -13 -79 -10 -9 8
49 167 75 204 12 18 22 36 22 40 0 5 15 22 33 40 27 26 41 32 77 32 114 0 312
83 385 161 72 77 98 145 98 254 0 75 -4 99 -25 146 -30 66 -60 103 -108 131
-19 12 -36 22 -37 23 -2 1 2 17 7 36 6 19 20 86 31 149 100 558 96 511 58 606
-77 194 -147 302 -281 437 -141 141 -295 236 -463 286 -116 34 -156 41 -257
41 -53 0 -109 5 -124 11 -16 5 -107 11 -203 13 -152 2 -192 0 -294 -21z m-151
-535 c-3 -18 -8 -57 -12 -85 -6 -48 -9 -53 -31 -53 l-25 0 7 78 c4 42 9 80 12
85 2 4 16 7 30 7 23 0 25 -3 19 -32z m60 -25 c-9 -75 -16 -103 -27 -103 -5 0
-7 10 -5 23 3 12 8 48 11 80 4 31 11 57 17 57 7 0 9 -19 4 -57z m529 37 c61
-5 123 -13 139 -16 l28 -6 -5 -75 c-3 -41 -8 -77 -11 -80 -3 -4 -63 -1 -133 6
-124 11 -435 31 -500 31 -31 0 -33 2 -33 34 0 18 3 55 7 81 l6 48 196 -6 c108
-4 246 -11 306 -17z m-781 -52 c-8 -35 -14 -72 -14 -84 0 -19 -10 -21 -137
-32 -76 -7 -156 -17 -178 -22 -22 -5 -41 -7 -44 -5 -2 2 4 26 13 52 10 26 23
65 29 85 11 36 12 37 76 47 88 14 123 17 202 19 l66 2 -13 -62z m-404 9 c0 -2
-15 -41 -34 -87 -25 -59 -41 -87 -57 -92 -12 -5 -24 -7 -26 -4 -5 5 40 91 87
164 12 18 30 30 30 19z m1623 -27 c73 -16 146 -34 163 -39 16 -5 76 -24 134
-41 58 -17 145 -45 193 -62 99 -35 93 -23 63 -127 -8 -29 -17 -55 -20 -58 -3
-3 -56 13 -118 35 -150 53 -417 126 -542 148 l-38 7 6 45 c3 25 6 62 6 83 0
22 4 39 10 39 5 0 69 -13 143 -30z m685 -219 c10 -6 9 -22 -7 -81 -11 -40 -22
-75 -24 -77 -2 -2 -12 -1 -21 3 -19 7 -18 13 10 112 15 53 19 58 42 43z
m-1772 -151 l32 -55 -41 -7 c-22 -4 -43 -5 -46 -3 -9 9 -13 124 -6 152 l7 28
11 -30 c6 -16 25 -54 43 -85z m123 -158 c47 -48 100 -100 118 -115 85 -71 226
-127 320 -127 l51 0 -25 48 c-14 26 -28 62 -30 80 l-5 33 45 -34 c25 -19 66
-43 91 -52 25 -10 46 -22 46 -27 0 -5 5 -6 10 -3 6 4 18 4 27 1 14 -6 12 -12
-13 -38 l-29 -31 42 28 42 27 104 -17 104 -17 -22 -22 c-12 -12 -26 -28 -31
-37 -5 -8 -36 -23 -69 -33 -163 -50 -274 -170 -307 -333 l-10 -51 -62 -4 c-33
-2 -62 -3 -63 -3 -2 1 -7 26 -13 56 -13 67 -53 151 -95 198 -20 22 -41 63 -54
106 -26 86 -28 89 -69 103 -41 14 -73 3 -91 -31 -13 -24 -17 -25 -105 -25
-127 1 -241 -43 -318 -123 l-28 -29 -1 28 c-3 64 28 139 82 199 l29 33 50 -20
c36 -14 74 -20 131 -20 l81 0 -26 44 c-14 25 -26 47 -26 50 0 12 57 6 106 -10
57 -19 154 -82 202 -130 36 -37 43 -33 9 7 -66 77 -197 151 -295 166 -42 7
-58 31 -72 112 -16 88 -14 91 69 100 7 0 52 -39 100 -87z m916 38 c14 -22 55
-72 93 -111 37 -40 56 -66 43 -60 -13 7 -39 13 -57 13 -37 0 -41 6 -82 113
-11 28 -23 58 -27 68 -13 31 4 18 30 -23z m-1358 -173 c4 -7 21 -21 36 -30
l29 -19 -49 -53 c-26 -29 -52 -53 -57 -54 -8 -1 -5 27 10 132 6 38 17 47 31
24z m1517 -59 c108 -50 142 -95 134 -180 -6 -61 -12 -67 -41 -41 -25 24 -114
73 -131 73 -7 0 -17 15 -24 33 -7 17 -27 42 -44 55 l-33 22 30 1 c17 1 33 1
38 0 10 -2 9 6 -8 39 -20 39 -10 39 79 -2z m-1117 -144 c25 -5 29 -10 25 -30
-3 -18 0 -24 14 -24 11 0 26 -5 34 -10 13 -9 13 -11 0 -20 -8 -6 -26 -8 -39
-5 l-23 6 4 -93 c3 -80 8 -101 31 -141 33 -56 51 -67 111 -67 47 0 76 18 76
48 0 9 3 34 6 55 6 33 4 37 -15 37 -11 0 -21 5 -21 10 0 6 10 10 21 10 20 0
21 4 16 50 -7 61 2 58 47 -14 63 -97 82 -226 51 -331 -26 -87 -34 -97 -74 -91
-20 3 -74 8 -121 11 -47 3 -144 13 -216 21 l-131 15 -83 -62 -83 -63 -29 34
c-15 19 -26 41 -23 48 3 8 5 27 5 44 l0 31 23 -19 c16 -13 14 -10 -5 11 -23
25 -29 48 -43 143 -18 123 -17 139 16 192 l22 35 29 -60 c32 -68 38 -61 8 10
-11 26 -20 53 -20 60 0 23 76 90 135 119 81 40 178 55 252 40z m873 -19 c0 -9
9 -15 25 -15 16 0 25 -6 25 -15 0 -10 -10 -15 -31 -15 l-32 0 6 -82 c7 -95 20
-140 53 -185 28 -37 53 -47 100 -39 38 8 62 43 74 108 6 33 5 37 -17 43 -28 7
-21 25 9 25 19 0 20 4 13 68 -4 37 -11 72 -16 79 -33 39 67 5 130 -45 21 -17
23 -25 18 -68 -3 -27 -9 -58 -13 -68 -5 -13 -4 -17 4 -12 6 3 14 27 18 51 3
25 10 45 14 45 20 0 50 -69 50 -115 0 -47 -19 -80 -83 -147 -7 -7 -29 -33 -50
-58 -38 -45 -39 -45 -140 -62 -56 -9 -116 -17 -133 -17 -24 -1 -42 -14 -90
-67 -32 -36 -76 -80 -97 -97 l-39 -30 -29 31 c-32 34 -34 74 -4 78 10 2 32 17
49 35 31 31 31 31 6 26 -14 -3 -50 -9 -81 -12 l-57 -7 -16 53 c-26 93 -29 130
-12 203 20 85 54 149 112 209 76 80 234 149 234 102z m416 -32 c1 -16 5 -49 9
-75 3 -27 4 -48 2 -48 -2 0 -13 13 -25 30 -20 27 -21 33 -10 79 12 54 20 58
24 14z m381 -89 c92 -45 140 -151 131 -287 -10 -151 -93 -250 -268 -319 -72
-28 -189 -51 -214 -42 -8 3 -36 -6 -62 -20 -26 -14 -48 -26 -49 -26 -2 0 -6
17 -10 37 -6 34 -3 40 32 73 49 46 86 101 114 170 18 44 22 77 23 160 2 96 11
141 35 160 4 3 15 25 26 49 23 53 57 70 136 71 40 0 69 -7 106 -26z m-2108
-54 c-24 -46 -28 -46 -39 4 -8 36 -8 36 26 36 l34 0 -21 -40z m1375 -56 c3 -9
20 -14 43 -14 21 0 48 -3 61 -6 35 -10 26 -53 -15 -77 -32 -19 -33 -18 -67 2
-50 31 -86 132 -41 115 7 -3 16 -12 19 -20z m-869 -4 c3 -5 1 -10 -4 -10 -6 0
-11 5 -11 10 0 6 2 10 4 10 3 0 8 -4 11 -10z m133 -36 c20 -4 23 -9 17 -32 -4
-15 -11 -33 -17 -39 -14 -17 -62 -16 -96 1 -30 15 -58 58 -49 73 6 9 97 7 145
-3z m1150 -105 c5 -109 -34 -215 -112 -299 -41 -44 -56 -44 -56 0 0 15 -7 63
-15 106 l-15 77 27 36 c59 77 114 136 133 144 29 11 35 0 38 -64z m-1809 -36
c7 -54 14 -111 17 -128 9 -56 -15 -2 -32 71 -13 58 -13 154 0 154 2 0 9 -44
15 -97z m966 -30 c4 -32 13 -73 21 -92 18 -43 18 -41 -11 -41 -14 0 -60 -7
-102 -16 -46 -9 -79 -12 -85 -6 -5 5 -1 28 10 58 11 27 22 69 26 93 4 24 9 48
12 53 3 4 31 8 63 8 l59 0 7 -57z m-700 -133 c4 -6 12 -7 18 -3 28 16 -33 -43
-86 -84 -57 -44 -92 -52 -92 -21 0 14 129 118 147 118 4 0 10 -5 13 -10z
m1023 -64 c2 -11 -8 -29 -26 -46 -17 -15 -28 -31 -25 -34 4 -3 -1 -6 -11 -6
-9 0 -19 -7 -22 -15 -7 -18 -14 -18 -37 0 -18 13 -15 17 35 68 54 56 80 66 86
33z m-1198 -85 c0 -14 11 -51 25 -81 l25 -55 -45 47 c-42 43 -45 51 -45 99 0
51 0 52 20 34 11 -10 20 -30 20 -44z m1223 34 c-3 -9 -8 -14 -10 -11 -3 3 -2
9 2 15 9 16 15 13 8 -4z m377 -134 c0 -5 -6 -16 -12 -23 -21 -21 -75 -137 -99
-211 -12 -38 -27 -70 -33 -72 -6 -2 -58 -16 -115 -31 -78 -22 -107 -34 -118
-51 -19 -29 -53 -157 -53 -200 0 -28 -12 -45 -86 -118 -48 -47 -92 -85 -98
-84 -6 0 -33 44 -60 98 l-49 97 12 65 c24 132 43 190 60 185 114 -31 162 -30
207 1 16 12 70 47 119 78 97 62 153 105 137 105 -6 0 -23 -10 -39 -23 -15 -13
-50 -37 -78 -55 -27 -17 -56 -36 -63 -43 -10 -8 -22 -7 -47 5 -46 22 -57 19
-15 -4 19 -11 32 -19 28 -20 -17 0 -24 -5 -38 -23 -14 -17 -105 -44 -96 -28 2
3 -15 6 -38 7 -23 0 -53 7 -66 14 -36 19 -8 24 35 6 51 -21 58 -19 15 4 -34
19 -35 19 -8 20 15 0 30 4 33 10 3 5 27 8 53 5 40 -3 43 -2 22 7 -25 11 -24
11 15 20 21 5 42 12 45 16 10 13 71 31 87 25 10 -4 14 -2 10 4 -6 10 48 43 70
43 22 0 181 104 215 140 38 41 48 47 48 31z m187 -343 c62 -91 108 -199 91
-209 -7 -5 -19 -9 -25 -9 -7 0 -13 -4 -13 -9 0 -5 16 -5 38 0 43 10 151 11
204 3 29 -5 43 -15 64 -47 15 -23 31 -46 35 -51 46 -58 61 -79 95 -131 21 -33
45 -73 52 -89 l12 -29 -107 7 c-60 3 -251 9 -426 12 -174 4 -327 8 -340 9 -12
1 -92 3 -179 4 l-156 1 -7 39 c-4 23 -13 41 -22 43 -10 2 1 20 36 58 l50 54 0
71 c-1 73 12 143 36 200 12 30 21 36 82 53 128 37 334 78 398 81 39 1 42 -1
82 -61z m-892 -60 c-4 -13 -12 -61 -18 -108 l-12 -85 -100 -7 c-55 -4 -121 -9
-147 -13 l-48 -6 20 33 c27 47 36 111 17 126 -15 13 -47 5 -78 -20 -23 -19
-69 -102 -69 -124 0 -11 11 3 26 31 45 85 99 128 119 95 9 -15 -14 -80 -43
-119 l-25 -33 109 7 c60 4 121 8 137 9 25 1 30 -6 63 -82 31 -70 35 -89 30
-127 l-7 -44 -92 4 c-51 3 -195 7 -322 10 -126 3 -268 8 -315 10 -47 2 -128 4
-180 5 l-95 1 35 29 c206 175 213 180 307 196 48 9 112 22 143 30 73 19 79 18
73 -8 -3 -13 -3 -21 0 -18 10 9 97 187 97 199 0 6 10 12 23 12 12 1 83 5 157
8 74 4 150 8 169 9 30 2 33 0 26 -20z"/>
<path d="M1725 2280 c21 -16 40 -30 43 -30 10 0 -62 59 -72 60 -5 0 8 -13 29
-30z"/>
<path d="M1156 1734 c-8 -21 -1 -28 18 -21 9 4 13 13 10 22 -8 20 -20 19 -28
-1z"/>
<path d="M1360 1713 c18 -13 48 -18 120 -19 l95 -2 -85 8 c-47 4 -98 13 -113
19 -40 16 -45 14 -17 -6z"/>
<path d="M1618 1693 c17 -2 47 -2 65 0 17 2 3 4 -33 4 -36 0 -50 -2 -32 -4z"/>
<path d="M2701 1764 c-13 -19 -21 -37 -19 -40 3 -3 16 11 28 31 29 47 22 54
-9 9z"/>
<path d="M2280 1710 c0 -5 5 -10 11 -10 5 0 7 5 4 10 -3 6 -8 10 -11 10 -2 0
-4 -4 -4 -10z"/>
<path d="M2365 1700 c72 -12 267 -11 285 0 10 6 -44 9 -160 9 -123 -1 -160 -4
-125 -9z"/>
<path d="M2390 1060 c8 -5 20 -10 25 -10 6 0 3 5 -5 10 -8 5 -19 10 -25 10 -5
0 -3 -5 5 -10z"/>
<path d="M2358 1043 c7 -3 16 -2 19 1 4 3 -2 6 -13 5 -11 0 -14 -3 -6 -6z"/>
<path d="M2250 980 c8 -5 20 -10 25 -10 6 0 3 5 -5 10 -8 5 -19 10 -25 10 -5
0 -3 -5 5 -10z"/>
<path d="M2473 828 c-28 -32 -53 -102 -52 -146 1 -33 3 -29 19 31 18 67 43
117 59 117 14 0 21 -40 21 -127 0 -46 4 -83 8 -83 5 0 44 9 88 20 84 22 158
38 211 47 62 9 177 41 153 42 -14 0 -45 -4 -70 -10 -25 -6 -54 -13 -65 -14
-65 -11 -149 -29 -210 -46 -38 -10 -75 -19 -81 -19 -7 0 -13 33 -16 90 -5 81
-17 120 -37 120 -4 0 -17 -10 -28 -22z"/>
<path d="M3118 561 c-21 -38 -38 -75 -38 -81 0 -7 12 9 26 36 14 27 31 56 38
64 17 19 27 50 18 50 -4 0 -24 -31 -44 -69z"/>
<path d="M1321 614 c0 -11 3 -14 6 -6 3 7 2 16 -1 19 -3 4 -6 -2 -5 -13z"/>
<path d="M1330 575 c0 -8 4 -15 10 -15 5 0 7 7 4 15 -4 8 -8 15 -10 15 -2 0
-4 -7 -4 -15z"/>
<path d="M1355 523 c15 -32 25 -42 25 -24 0 5 -9 19 -20 32 l-21 24 16 -32z"/>
</g>
</svg>
